<?xml version="1.0" encoding="UTF-8"?>
<svg version="1.1" xmlns="http://www.w3.org/2000/svg" width="500" height="500">
<path d="M0 0 C0 0.66 0 1.32 0 2 C0.66 2 1.32 2 2 2 C3.68873879 3.64429829 5.35305515 5.31384218 7 7 C7.763125 7.556875 8.52625 8.11375 9.3125 8.6875 C9.869375 9.120625 10.42625 9.55375 11 10 C11 10.66 11 11.32 11 12 C11.556875 12.268125 12.11375 12.53625 12.6875 12.8125 C16.73417963 14.89052467 20.4893932 17.32432756 24.25 19.875 C28.71025079 22.85339115 33.23536735 25.53814688 38 28 C38.86238281 28.44988281 39.72476563 28.89976562 40.61328125 29.36328125 C79.26001096 48.35392591 123.2047051 51.3752321 164 38 C164.72606445 37.76313477 165.45212891 37.52626953 166.20019531 37.28222656 C172.18893806 35.30113795 177.59902898 33.25210907 183 30 C184.71104648 29.28304742 186.4221802 28.56629603 188.13476562 27.85302734 C191.5180123 26.30576767 194.61555049 24.30596862 197.75 22.3125 C198.44375732 21.87478271 199.13751465 21.43706543 199.85229492 20.98608398 C209.8163826 14.83228275 209.8163826 14.83228275 218.66796875 7.27734375 C220 6 220 6 222 6 C222 5.34 222 4.68 222 4 C225.7902252 0.02488577 225.7902252 0.02488577 228 -1 C233.42041747 -0.79545594 236.91863253 0.783699 241.4375 3.6875 C241.99953125 4.04545654 242.5615625 4.40341309 243.140625 4.7722168 C246.9657764 7.23713117 250.65419735 9.8484429 254.21875 12.67578125 C256.03813815 14.07718719 256.03813815 14.07718719 258.296875 15.35546875 C261.6142214 17.37368094 264.6670364 19.64447725 267.75 22 C268.63365234 22.65742188 268.63365234 22.65742188 269.53515625 23.328125 C273.88187307 26.64561922 273.88187307 26.64561922 275 30 C275.680625 30.2475 276.36125 30.495 277.0625 30.75 C281.38456611 32.58917707 284.7727299 35.6045595 288 39 C288 39.66 288 40.32 288 41 C288.66 41 289.32 41 290 41 C292.125 42.875 292.125 42.875 294 45 C294 45.66 294 46.32 294 47 C294.66 47 295.32 47 296 47 C299.91327696 50.71945899 303.51460715 54.71860321 305 60 C305.66 60 306.32 60 307 60 C307 60.66 307 61.32 307 62 C307.66 62 308.32 62 309 62 C310.74020814 64.10850616 312.34853425 66.21812338 313.9375 68.4375 C314.66404785 69.44272705 314.66404785 69.44272705 315.40527344 70.46826172 C323.13953169 81.2757517 330.37256277 92.34973276 336.51171875 104.14453125 C337.84358787 106.69990219 339.24642411 109.19282784 340.6875 111.6875 C343.25460582 116.29491143 345.13286546 121.07561081 347 126 C347.37898438 126.94230469 347.75796875 127.88460937 348.1484375 128.85546875 C353.44433218 142.16266908 357.87360036 155.68822095 360.41015625 169.796875 C360.88693718 172.38601645 361.48685294 174.84300649 362.1875 177.375 C363.17281184 181.77942814 363.28576226 186.19125418 363.375 190.6875 C363.40102295 191.41308105 363.4270459 192.13866211 363.45385742 192.88623047 C363.47105469 198.04896768 362.34267223 200.88080863 359 205 C352.69796068 211.161994 346.48682182 212.30653238 337.90172768 212.25447559 C337.11125337 212.25768207 336.32077907 212.26088855 335.50635099 212.26419219 C332.85935383 212.27248911 330.21258312 212.26656898 327.56558228 212.26069641 C325.64792144 212.26371723 323.73026181 212.26760636 321.81260431 212.27228898 C316.54404272 212.28258663 311.27554905 212.28038264 306.00698185 212.27610838 C300.32452723 212.27364438 294.64208911 212.28265128 288.9596405 212.29014587 C277.82755148 212.30290391 266.69548656 212.30468519 255.56339146 212.30234561 C246.51614918 212.30056354 237.46891423 212.30230971 228.42167282 212.30657005 C227.13467678 212.30716524 225.84768074 212.30776043 224.52168482 212.30837366 C221.90726214 212.30958539 219.29283945 212.31079952 216.67841677 212.31201603 C199.12093557 212.31980473 181.56345827 212.32372134 164.00597572 212.31969929 C163.31943478 212.31954291 162.63289384 212.31938654 161.92554862 212.31922542 C158.44592065 212.31841964 154.96629269 212.31757387 151.48666473 212.31671212 C150.45007504 212.31645549 150.45007504 212.31645549 149.39254415 212.31619367 C147.99505361 212.31584702 146.59756307 212.31549849 145.20007253 212.31514808 C123.45465471 212.30979077 101.70927744 212.31772174 79.96386719 212.33618164 C55.53004773 212.35689949 31.09625762 212.36759368 6.66242826 212.36360615 C-6.27382308 212.36169235 -19.21003748 212.36419913 -32.1462822 212.37832069 C-43.15888539 212.39022058 -54.17142891 212.391655 -65.1840329 212.37953053 C-70.80332472 212.37363211 -76.4225073 212.37256907 -82.04179192 212.38453293 C-87.18622938 212.39535857 -92.33046595 212.39232788 -97.47489388 212.37827124 C-99.33553222 212.37561517 -101.19618614 212.37801933 -103.05680923 212.38600711 C-124.98222405 212.47359788 -124.98222405 212.47359788 -131.9375 206.0625 C-132.75541016 205.33740234 -132.75541016 205.33740234 -133.58984375 204.59765625 C-138.23869666 199.33067331 -137.55169102 192.95939221 -137.19970703 186.32324219 C-136.52236212 178.44351823 -134.76167404 170.69612062 -133 163 C-132.82871582 162.24879883 -132.65743164 161.49759766 -132.48095703 160.72363281 C-127.75188357 140.68980576 -119.84122401 121.05230661 -110 103 C-109.40058594 101.87464844 -108.80117187 100.74929688 -108.18359375 99.58984375 C-102.50448989 89.26312253 -95.82864637 79.59393103 -89 70 C-88.45118164 69.22495117 -87.90236328 68.44990234 -87.33691406 67.65136719 C-86.80549805 66.91821289 -86.27408203 66.18505859 -85.7265625 65.4296875 C-85.25041504 64.76952637 -84.77426758 64.10936523 -84.28369141 63.42919922 C-83.86007324 62.95756348 -83.43645508 62.48592773 -83 62 C-82.34 62 -81.68 62 -81 62 C-80.7628125 61.45859375 -80.525625 60.9171875 -80.28125 60.359375 C-78.65652243 57.36749863 -76.6498123 54.88840601 -74.5 52.25 C-73.7059375 51.26515625 -72.911875 50.2803125 -72.09375 49.265625 C-71.4028125 48.51796875 -70.711875 47.7703125 -70 47 C-69.34 47 -68.68 47 -68 47 C-68 46.34 -68 45.68 -68 45 C-67.34 45 -66.68 45 -66 45 C-66 44.34 -66 43.68 -66 43 C-65.34 43 -64.68 43 -64 43 C-64 42.34 -64 41.68 -64 41 C-63.34 41 -62.68 41 -62 41 C-62 40.34 -62 39.68 -62 39 C-60.40665761 37.56450274 -58.74748918 36.20172673 -57.0625 34.875 C-53.41905853 31.96770144 -49.87182756 29.02621095 -46.4375 25.875 C-41.90766484 21.80541547 -37.05324205 18.38494683 -32 15 C-31.30519531 14.52046875 -30.61039062 14.0409375 -29.89453125 13.546875 C-7.81819553 -1.52964695 -7.81819553 -1.52964695 0 0 Z " fill="#040406" transform="translate(137,275)"/>
<path d="M0 0 C1.04889404 0.13422363 2.09778809 0.26844727 3.1784668 0.40673828 C14.98000159 1.99716359 26.20954761 4.21653027 36.9453125 9.6015625 C39.37921756 10.8226197 39.37921756 10.8226197 42.1171875 11.59375 C46.48327096 13.14334317 50.3511814 15.34749211 54.375 17.625 C55.15617188 18.05941406 55.93734375 18.49382813 56.7421875 18.94140625 C61.07622952 21.37109647 65.37841536 23.79099022 69.375 26.75 C69.375 27.41 69.375 28.07 69.375 28.75 C70.07625 28.976875 70.7775 29.20375 71.5 29.4375 C75.11628535 31.08841288 77.46269976 33.0408835 80.375 35.75 C80.375 36.41 80.375 37.07 80.375 37.75 C81.035 37.75 81.695 37.75 82.375 37.75 C82.375 38.41 82.375 39.07 82.375 39.75 C83.035 39.75 83.695 39.75 84.375 39.75 C84.375 40.41 84.375 41.07 84.375 41.75 C85.035 41.75 85.695 41.75 86.375 41.75 C87.9609375 43.32421875 87.9609375 43.32421875 89.75 45.4375 C90.36746094 46.16582031 90.98492187 46.89414062 91.62109375 47.64453125 C92.19988281 48.33933594 92.77867187 49.03414062 93.375 49.75 C94.5815625 51.173125 94.5815625 51.173125 95.8125 52.625 C97.375 54.75 97.375 54.75 97.375 56.75 C98.035 56.75 98.695 56.75 99.375 56.75 C101.11296843 59.24735104 102.65188253 61.82992353 104.20703125 64.44335938 C104.56667969 65.04728516 104.92632812 65.65121094 105.296875 66.2734375 C105.65201172 66.87381836 106.00714844 67.47419922 106.37304688 68.09277344 C107.19522415 69.45265144 108.06760766 70.78205399 108.953125 72.1015625 C126.34292904 98.3773653 131.86547851 137.08365888 125.82910156 167.66796875 C120.17034354 193.61307006 109.87587081 219.11996806 91.375 238.75 C90.715 238.75 90.055 238.75 89.375 238.75 C89.1171875 239.33265625 88.859375 239.9153125 88.59375 240.515625 C87.27665983 242.9302903 85.82411616 244.56740177 83.875 246.5 C83.2665625 247.11359375 82.658125 247.7271875 82.03125 248.359375 C80.375 249.75 80.375 249.75 78.375 249.75 C78.375 250.41 78.375 251.07 78.375 251.75 C77.715 251.75 77.055 251.75 76.375 251.75 C76.375 252.41 76.375 253.07 76.375 253.75 C49.45705253 278.66259895 11.46008403 287.61792602 -24.07910156 286.85205078 C-29.9970008 286.61483541 -35.78897623 285.73903768 -41.625 284.75 C-42.49125 284.64042969 -43.3575 284.53085937 -44.25 284.41796875 C-57.59519775 282.52044845 -71.98037186 277.51401008 -83.625 270.75 C-84.58277344 270.21632813 -85.54054688 269.68265625 -86.52734375 269.1328125 C-99.92248217 261.53153597 -99.92248217 261.53153597 -105.625 256.75 C-105.625 256.09 -105.625 255.43 -105.625 254.75 C-106.945 254.42 -108.265 254.09 -109.625 253.75 C-109.625 253.09 -109.625 252.43 -109.625 251.75 C-110.429375 251.4096875 -110.429375 251.4096875 -111.25 251.0625 C-115.07606418 248.94809611 -118.91035153 246.63871381 -120.5 242.4375 C-120.54125 241.880625 -120.5825 241.32375 -120.625 240.75 C-121.285 240.75 -121.945 240.75 -122.625 240.75 C-122.625 240.09 -122.625 239.43 -122.625 238.75 C-123.553125 238.4096875 -123.553125 238.4096875 -124.5 238.0625 C-127.2469805 236.36583557 -127.49135273 234.69748289 -128.625 231.75 C-129.615 231.42 -130.605 231.09 -131.625 230.75 C-132.84838867 229.34570313 -132.84838867 229.34570313 -134.04296875 227.53125 C-134.71162964 226.51720093 -134.71162964 226.51720093 -135.39379883 225.48266602 C-135.86197021 224.74588623 -136.3301416 224.00910645 -136.8125 223.25 C-137.29936279 222.48679443 -137.78622559 221.72358887 -138.2878418 220.93725586 C-159.15213433 187.53038616 -165.92202067 147.86244241 -157.08886719 109.41650391 C-155.83483339 104.44693473 -154.31502564 99.58734033 -152.625 94.75 C-152.39941406 94.10337402 -152.17382812 93.45674805 -151.94140625 92.79052734 C-147.46555816 80.26384232 -141.16137738 67.02627596 -132.625 56.75 C-131.965 56.75 -131.305 56.75 -130.625 56.75 C-130.439375 56.069375 -130.25375 55.38875 -130.0625 54.6875 C-128.34053498 51.16870191 -126.11656949 49.053546 -123.28125 46.3984375 C-121.41511315 44.6501396 -121.41511315 44.6501396 -119.625 41.75 C-118.965 41.75 -118.305 41.75 -117.625 41.75 C-117.625 41.09 -117.625 40.43 -117.625 39.75 C-116.965 39.75 -116.305 39.75 -115.625 39.75 C-115.625 39.09 -115.625 38.43 -115.625 37.75 C-102.93027197 25.91468296 -88.02787489 15.76359636 -71.6875 9.8671875 C-69.05865485 8.90819552 -66.55122849 7.83023776 -64 6.6875 C-53.32647364 2.42154367 -41.42410688 0.7959182 -30.0625 -0.5 C-29.36189453 -0.58008301 -28.66128906 -0.66016602 -27.93945312 -0.74267578 C-18.50868547 -1.70222745 -9.38743803 -1.20194371 0 0 Z " fill="#030305" transform="translate(266.625,14.25)"/>
<path d="M0 0 C0.66 0.33 1.32 0.66 2 1 C-17.89168495 22.77651465 -17.89168495 22.77651465 -23 25 C-21.32598022 21.04322598 -18.86850715 18.15535787 -16 15 C-15.34 15 -14.68 15 -14 15 C-14 14.34 -14 13.68 -14 13 C-13.34 13 -12.68 13 -12 13 C-12 12.34 -12 11.68 -12 11 C-11.34 11 -10.68 11 -10 11 C-10 10.34 -10 9.68 -10 9 C-9.34 9 -8.68 9 -8 9 C-8 8.34 -8 7.68 -8 7 C-6.25 5.2734375 -6.25 5.2734375 -4 3.375 C-3.2575 2.74335938 -2.515 2.11171875 -1.75 1.4609375 C-0.88375 0.73777344 -0.88375 0.73777344 0 0 Z " fill="#6E6E6F" transform="translate(83,307)"/>
<path d="M0 0 C0.66 0.33 1.32 0.66 2 1 C1.09515208 2.15518918 0.1755794 3.29885406 -0.75 4.4375 C-1.26046875 5.07558594 -1.7709375 5.71367187 -2.296875 6.37109375 C-5.02524309 8.98056506 -7.3159481 9 -11 9 C-7.37 6.03 -3.74 3.06 0 0 Z " fill="#838384" transform="translate(103,291)"/>
<path d="M0 0 C0 3.61165822 -0.61753391 4.3710719 -3 7 C-5.97194 9.080358 -7.33815476 10 -11 10 C-9.71034824 8.62437146 -8.37310707 7.29233607 -7 6 C-6.34 6 -5.68 6 -5 6 C-5 5.34 -5 4.68 -5 4 C-3.37373596 2.61767557 -1.7074998 1.28062485 0 0 Z " fill="#8C8C8D" transform="translate(364,275)"/>
<path d="M0 0 C-0.66 1.65 -1.32 3.3 -2 5 C-3.98 5 -5.96 5 -8 5 C-3.16129032 0 -3.16129032 0 0 0 Z " fill="#646465" transform="translate(124,279)"/>
<path d="M0 0 C-0.66 1.32 -1.32 2.64 -2 4 C-2.66 4 -3.32 4 -4 4 C-5.66965451 4.31802943 -7.33678518 4.64984951 -9 5 C-7.36885863 1.73771726 -3.62038485 0 0 0 Z " fill="#767677" transform="translate(184,30)"/>
</svg>
