<?xml version="1.0" encoding="UTF-8"?>
<svg version="1.1" xmlns="http://www.w3.org/2000/svg" width="500" height="500">
<path d="M0 0 C7.26 0 14.52 0 22 0 C25.09691778 7.10469374 27.84676645 14.21848474 30.3125 21.5625 C30.57885254 22.34802246 30.84520508 23.13354492 31.11962891 23.94287109 C32.15195913 27.06426352 33 29.69018312 33 33 C33.66 33 34.32 33 35 33 C35.24621094 31.7625 35.49242187 30.525 35.74609375 29.25 C37.0605218 23.3391271 39.04291487 17.7010829 41.0625 12 C41.60874023 10.42798828 41.60874023 10.42798828 42.16601562 8.82421875 C44.8630354 1.1369646 44.8630354 1.1369646 46 0 C53.26 0 60.52 0 68 0 C68 20.13 68 40.26 68 61 C62.72 61 57.44 61 52 61 C51.67 50.11 51.34 39.22 51 28 C47.37 38.89 43.74 49.78 40 61 C36.04 61 32.08 61 28 61 C24.93098671 53.54865693 22.26177427 46.03028498 19.75 38.375 C18.5125 34.62125 17.275 30.8675 16 27 C15.67 38.22 15.34 49.44 15 61 C10.05 61 5.1 61 0 61 C0 40.87 0 20.74 0 0 Z " fill="#FFFFFF" transform="translate(260,228)"/>
<path d="M0 0 C18 0 18 0 22.20703125 4.09375 C23.60351562 6.71875 23.60351562 6.71875 24.8125 9.5 C25.71478953 11.28127747 26.61713264 13.06252779 27.51953125 14.84375 C27.88151611 15.63974609 28.24350098 16.43574219 28.61645508 17.25585938 C30.4918976 20.97563597 32.79212196 24.46739513 35 28 C35.33 18.76 35.66 9.52 36 0 C41.28 0 46.56 0 52 0 C52 20.13 52 40.26 52 61 C36 61 36 61 32.56640625 58.02734375 C31.49365234 56.0703125 31.49365234 56.0703125 30.5625 53.9375 C29.79595426 52.47766428 29.02901695 51.01803411 28.26171875 49.55859375 C27.89481934 48.80690918 27.52791992 48.05522461 27.14990234 47.28076172 C25.65520228 44.31611459 23.95358967 41.50590938 22.21411133 38.67993164 C20.44745711 35.80400539 18.72832357 32.89912341 17 30 C16.67 40.23 16.34 50.46 16 61 C10.72 61 5.44 61 0 61 C0 40.87 0 20.74 0 0 Z " fill="#FFFFFF" transform="translate(74,228)"/>
<path d="M0 0 C1.27617187 -0.01160156 1.27617187 -0.01160156 2.578125 -0.0234375 C9.74803248 -0.00144392 17.20028969 0.61023175 23 5.25 C28.13041804 13.12885627 27.1823287 23.07522413 27.1875 32.125 C27.19974609 33.24519531 27.21199219 34.36539063 27.22460938 35.51953125 C27.25352577 52.04043299 27.25352577 52.04043299 22.9375 58.1875 C15.87995964 63.1427943 8.41889254 63.72965474 0 63.625 C-0.93328125 63.63660156 -1.8665625 63.64820313 -2.828125 63.66015625 C-10.26742906 63.62898598 -16.71631534 62.4857002 -22.9375 58.25 C-28.04247712 50.82457873 -27.31401354 40.44517289 -27.25 31.75 C-27.25773438 30.69941406 -27.26546875 29.64882813 -27.2734375 28.56640625 C-27.23042786 11.1690068 -27.23042786 11.1690068 -23.46582031 6.2421875 C-17.05492131 -0.0230987 -8.46231363 -0.07693012 0 0 Z M-9 15.25 C-11.10818398 19.46636796 -10.18585825 24.98818493 -10.18530273 29.6262207 C-10.18748791 31.67615557 -10.20564534 33.72555109 -10.22460938 35.77539062 C-10.22654297 37.06509766 -10.22847656 38.35480469 -10.23046875 39.68359375 C-10.23457764 40.87009521 -10.23868652 42.05659668 -10.24291992 43.27905273 C-10.22660947 46.4355553 -10.22660947 46.4355553 -8 49.25 C-5.08913331 50.2202889 -3.09776315 50.41467847 -0.0625 50.4375 C1.21947266 50.45876953 1.21947266 50.45876953 2.52734375 50.48046875 C5.17624285 50.23357294 6.76635385 49.67413681 9 48.25 C11.10818398 44.03363204 10.18585825 38.51181507 10.18530273 33.8737793 C10.18748791 31.82384443 10.20564534 29.77444891 10.22460938 27.72460938 C10.22654297 26.43490234 10.22847656 25.14519531 10.23046875 23.81640625 C10.23457764 22.62990479 10.23868652 21.44340332 10.24291992 20.22094727 C10.22660947 17.0644447 10.22660947 17.0644447 8 14.25 C2.28031416 12.85746211 -3.6476117 12.57380585 -9 15.25 Z " fill="#FFFFFF" transform="translate(163,226.75)"/>
<path d="M0 0 C9.466875 -0.0928125 9.466875 -0.0928125 19.125 -0.1875 C21.1064502 -0.21481201 23.08790039 -0.24212402 25.12939453 -0.27026367 C26.713861 -0.27903203 28.29833427 -0.28667514 29.8828125 -0.29296875 C30.69419678 -0.30831665 31.50558105 -0.32366455 32.34155273 -0.33947754 C37.3213302 -0.34175975 40.67670019 0.25622553 45 3 C50.7810993 9.09359115 50.34828118 15.21202764 50.21875 23.28515625 C49.81677008 30.1116366 47.99985658 34.25840047 43 39 C43.24234375 39.59538574 43.4846875 40.19077148 43.734375 40.80419922 C44.82649824 43.49302765 45.91330919 46.18397174 47 48.875 C47.3815625 49.81214844 47.763125 50.74929688 48.15625 51.71484375 C48.69765625 53.05869141 48.69765625 53.05869141 49.25 54.4296875 C49.58515625 55.25710449 49.9203125 56.08452148 50.265625 56.93701172 C51 59 51 59 51 61 C45.39 61 39.78 61 34 61 C31.36 54.4 28.72 47.8 26 41 C23.03 40.67 20.06 40.34 17 40 C17 46.93 17 53.86 17 61 C11.39 61 5.78 61 0 61 C0 40.87 0 20.74 0 0 Z M17 13 C17 17.62 17 22.24 17 27 C19.083125 27.04125 21.16625 27.0825 23.3125 27.125 C24.48425781 27.14820313 25.65601563 27.17140625 26.86328125 27.1953125 C30.16393661 27.25320618 30.16393661 27.25320618 33 25 C33.83572001 21.52854767 34.35698727 19.04350124 33.1875 15.625 C32.08014273 13.84911756 32.08014273 13.84911756 30 13 C25.66396021 12.8606671 21.33919329 12.95745889 17 13 Z " fill="#FFFFFF" transform="translate(200,228)"/>
<path d="M0 0 C1.01578125 -0.020625 2.0315625 -0.04125 3.078125 -0.0625 C9.85131783 -0.09768542 15.04387903 0.38510323 20.5 4.75 C23.37416225 8.58221633 22.75218787 13.09452514 22.72265625 17.63671875 C22.7212413 18.45372757 22.71982635 19.27073639 22.71836853 20.11250305 C22.71277294 22.72087268 22.70022129 25.32915634 22.6875 27.9375 C22.68248443 29.70637897 22.67792162 31.47525928 22.67382812 33.24414062 C22.66280496 37.57946019 22.64554338 41.91471552 22.625 46.25 C18.005 46.25 13.385 46.25 8.625 46.25 C8.295 45.26 7.965 44.27 7.625 43.25 C7.026875 43.724375 6.42875 44.19875 5.8125 44.6875 C0.72441771 48.3218445 -5.37941454 47.80441345 -11.375 47.25 C-15.56913314 45.44218399 -16.8831051 44.29795 -18.8125 40.1875 C-19.7236642 33.80935061 -19.88009753 27.75849588 -16.5 22.125 C-13.40168332 19.39119116 -10.90326762 19.12564921 -6.92578125 19.15234375 C-6.07822266 19.15556641 -5.23066406 19.15878906 -4.35742188 19.16210938 C-3.03581055 19.17467773 -3.03581055 19.17467773 -1.6875 19.1875 C-0.34848633 19.19426758 -0.34848633 19.19426758 1.01757812 19.20117188 C3.22011987 19.21295017 5.42252599 19.22939836 7.625 19.25 C6.965 17.27 6.305 15.29 5.625 13.25 C-1.635 12.92 -8.895 12.59 -16.375 12.25 C-16.375 8.62 -16.375 4.99 -16.375 1.25 C-10.80728678 0.13645736 -5.65487086 0.02848801 0 0 Z M-4.375 28.25 C-4.375 30.56 -4.375 32.87 -4.375 35.25 C-1.32516004 36.77491998 1.2673369 36.48562548 4.625 36.25 C6.68902685 35.26951062 6.68902685 35.26951062 7.625 33.25 C7.87548636 30.12450983 7.87548636 30.12450983 7.625 27.25 C6.00009046 27.22301811 4.37505367 27.20361243 2.75 27.1875 C1.84507812 27.17589844 0.94015625 27.16429687 0.0078125 27.15234375 C-2.3918585 27.08750743 -2.3918585 27.08750743 -4.375 28.25 Z " fill="#FFFFFF" transform="translate(355.375,242.75)"/>
<path d="M0 0 C5.61 0 11.22 0 17 0 C17 15.51 17 31.02 17 47 C24.92 47 32.84 47 41 47 C41 51.62 41 56.24 41 61 C27.47 61 13.94 61 0 61 C0 40.87 0 20.74 0 0 Z " fill="#FFFFFF" transform="translate(389,228)"/>
<path d="M0 0 C8.3984375 -0.1953125 8.3984375 -0.1953125 11 0 C13 2 13 2 13.375 5.4375 C13 9 13 9 11 10.9375 C10.34 11.288125 9.68 11.63875 9 12 C10.32 13.65 11.64 15.3 13 17 C8.68607774 16.5206753 6.83430453 15.2542015 4 12 C3.67 13.65 3.34 15.3 3 17 C2.01 17 1.02 17 0 17 C0 11.39 0 5.78 0 0 Z M3 3 C3 4.65 3 6.3 3 8 C4.98 8 6.96 8 9 8 C9.59070014 6.05396726 9.59070014 6.05396726 10 4 C8.87465895 2.64381501 8.87465895 2.64381501 5.9375 2.9375 C4.968125 2.958125 3.99875 2.97875 3 3 Z " fill="#FFFFFF" transform="translate(191,195)"/>
<path d="M0 0 C2.5 1.4375 2.5 1.4375 4 4 C4.65454343 8.1003008 4.56871733 11.66184157 2.9375 15.5 C0.0009481 17.77345954 -2.32854828 17.93669911 -6 18 C-9.24798106 16.70080758 -10.58941682 15.69052626 -12.375 12.6875 C-13.15024358 9.35395262 -12.97718613 7.28055344 -12 4 C-8.9409917 -0.64969262 -5.16888877 -1.00623859 0 0 Z M-7.6875 4.1875 C-10.27785861 6.7310815 -10.27785861 6.7310815 -10 9.625 C-8.93173676 12.1621252 -8.32271275 13.50682752 -6 15 C-2.65807308 14.75546876 -1.39456443 14.39456443 1 12 C1.50007794 8.54213985 1.50007794 8.54213985 1 5 C-0.7484395 2.97891823 -0.7484395 2.97891823 -3 2 C-5.31901751 1.7895762 -5.31901751 1.7895762 -7.6875 4.1875 Z " fill="#FFFFFF" transform="translate(230,195)"/>
<path d="M0 0 C2.5 1.875 2.5 1.875 4 4 C4 4.66 4 5.32 4 6 C1.72605639 5.51272637 0.01387473 5.00823812 -2 3.8125 C-4.03744582 2.71815699 -4.03744582 2.71815699 -6.25 3.875 C-6.8275 4.24625 -7.405 4.6175 -8 5 C-8.16677282 8.41656024 -8.16677282 8.41656024 -8 12 C-7.34 12.66 -6.68 13.32 -6 14 C-2.70285207 13.67028521 -1.3773161 13.3773161 1 11 C1.99 11 2.98 11 4 11 C3.13088303 13.75220373 2.5527839 15.5656698 0.25 17.375 C-2.88235613 18.24509892 -4.88788509 17.90770018 -8 17 C-10.375 15.5 -10.375 15.5 -12 13 C-12.77577846 8.69363796 -12.73064701 5.24818864 -10.5 1.4375 C-6.97908861 -0.58702405 -3.96765162 -0.82930423 0 0 Z " fill="#FFFFFF" transform="translate(307,195)"/>
<path d="M0 0 C1.588125 -0.061875 3.17625 -0.12375 4.8125 -0.1875 C6.15248047 -0.23970703 6.15248047 -0.23970703 7.51953125 -0.29296875 C10 0 10 0 11.8359375 1.28515625 C13 3 13 3 12.8125 6.625 C12.544375 7.73875 12.27625 8.8525 12 10 C9.04335481 11.4783226 6.25770263 11.06032783 3 11 C3 12.98 3 14.96 3 17 C2.01 17 1.02 17 0 17 C0 11.39 0 5.78 0 0 Z M3 3 C3 4.65 3 6.3 3 8 C4.98 8 6.96 8 9 8 C9.59070014 6.05396726 9.59070014 6.05396726 10 4 C8.87465895 2.64381501 8.87465895 2.64381501 5.9375 2.9375 C4.968125 2.958125 3.99875 2.97875 3 3 Z " fill="#FFFFFF" transform="translate(164,195)"/>
<path d="M0 0 C3.63 0 7.26 0 11 0 C11 0.99 11 1.98 11 3 C8.36 3 5.72 3 3 3 C3 4.32 3 5.64 3 7 C5.64 7 8.28 7 11 7 C11 7.99 11 8.98 11 10 C8.36 10 5.72 10 3 10 C3 11.65 3 13.3 3 15 C5.64 15 8.28 15 11 15 C11 15.66 11 16.32 11 17 C7.37 17 3.74 17 0 17 C0 11.39 0 5.78 0 0 Z " fill="#FFFFFF" transform="translate(270,195)"/>
<path d="M0 0 C4.62 0 9.24 0 14 0 C14 0.99 14 1.98 14 3 C12.35 3 10.7 3 9 3 C9 7.62 9 12.24 9 17 C8.01 17 7.02 17 6 17 C6 12.38 6 7.76 6 3 C4.02 3 2.04 3 0 3 C0 2.01 0 1.02 0 0 Z " fill="#FFFFFF" transform="translate(323,195)"/>
<path d="M0 0 C0.99 0 1.98 0 3 0 C3.02684679 2.64590014 3.04676357 5.29153096 3.0625 7.9375 C3.07087891 8.69224609 3.07925781 9.44699219 3.08789062 10.22460938 C3.09652441 12.14994313 3.05224333 14.07535581 3 16 C2 17 2 17 -1.5625 17.0625 C-2.696875 17.041875 -3.83125 17.02125 -5 17 C-5 16.34 -5 15.68 -5 15 C-3.35 15 -1.7 15 0 15 C0 10.05 0 5.1 0 0 Z " fill="#FFFFFF" transform="translate(252,195)"/>
</svg>
